<svg preserveAspectRatio="none" overflow="visible" style="display: block;" width="12" height="12" viewBox="0 0 12 12" fill="none" xmlns="http://www.w3.org/2000/svg">
<g id="Expand icon part 1" clip-path="url(#clip0_0_5)">
<path id="Expand chevron shape" d="M10.0553 10.0553C10.4669 9.64372 11.1344 9.64372 11.546 10.0553C11.9576 10.467 11.9576 11.1343 11.546 11.546C11.1344 11.9576 10.4669 11.9576 10.0553 11.546C9.64369 11.1343 9.64369 10.467 10.0553 10.0553ZM7.61869 7.61867C8.03029 7.20707 8.69772 7.20707 9.10932 7.61867C9.52097 8.03032 9.52097 8.6977 9.10932 9.10935C8.69772 9.52095 8.03029 9.52095 7.61869 9.10935C7.20704 8.6977 7.20704 8.03032 7.61869 7.61867ZM0.308717 10.0553C0.720339 9.64372 1.38775 9.64372 1.79937 10.0553C2.211 10.467 2.211 11.1343 1.79937 11.546C1.38775 11.9576 0.720339 11.9576 0.308717 11.546C-0.102906 11.1343 -0.102906 10.467 0.308717 10.0553ZM2.74537 7.61867C3.15699 7.20707 3.8244 7.20707 4.23603 7.61867C4.64763 8.03032 4.64763 8.6977 4.23603 9.10935C3.8244 9.52095 3.15699 9.52095 2.74537 9.10935C2.33375 8.6977 2.33375 8.03032 2.74537 7.61867ZM5.182 5.18202C5.59365 4.77038 6.26108 4.77038 6.67268 5.18202C7.08432 5.59362 7.08432 6.26105 6.67268 6.6727C6.26108 7.0843 5.59365 7.0843 5.182 6.6727C4.7704 6.26105 4.7704 5.59362 5.182 5.18202ZM7.61869 2.74537C8.03029 2.33374 8.69772 2.33374 9.10932 2.74537C9.52097 3.15699 9.52097 3.8244 9.10932 4.23603C8.69772 4.64765 8.03029 4.64765 7.61869 4.23603C7.20704 3.8244 7.20704 3.15699 7.61869 2.74537ZM10.0553 0.308717C10.4669 -0.102905 11.1344 -0.102905 11.546 0.308717C11.9576 0.72034 11.9576 1.38775 11.546 1.79938C11.1344 2.211 10.4669 2.21099 10.0553 1.79938C9.64369 1.38775 9.64369 0.72034 10.0553 0.308717ZM2.74537 2.74537C3.15699 2.33374 3.8244 2.33374 4.23603 2.74537C4.64763 3.15699 4.64763 3.8244 4.23603 4.23603C3.8244 4.64765 3.15699 4.64765 2.74537 4.23603C2.33375 3.8244 2.33375 3.15699 2.74537 2.74537ZM0.308717 0.308717C0.720339 -0.102905 1.38775 -0.102906 1.79937 0.308716C2.211 0.72034 2.211 1.38775 1.79937 1.79938C1.38775 2.211 0.720339 2.211 0.308717 1.79938C-0.102906 1.38775 -0.102906 0.72034 0.308717 0.308717Z" fill="#EEEEEE"/>
</g>
<defs>
<clipPath id="clip0_0_5">
<rect width="12" height="12" fill="white"/>
</clipPath>
</defs>
</svg>
